<mxfile host="app.diagrams.net" modified="2021-04-28T09:42:14.038Z" agent="5.0 (Windows)" etag="jd8aMFiHo2AbYMuA2cX1" version="14.6.3" type="github">
  <diagram id="-uV0h4pvlfsFhcBvt2x_" name="Page-1">
    <mxGraphModel dx="1038" dy="547" grid="1" gridSize="10" guides="1" tooltips="1" connect="1" arrows="1" fold="1" page="1" pageScale="1" pageWidth="850" pageHeight="1100" math="0" shadow="0">
      <root>
        <mxCell id="0" />
        <mxCell id="1" parent="0" />
        <mxCell id="C70Fwr4B-RXGBDxF2DJP-2" value="Dispatcher" style="shape=umlActor;verticalLabelPosition=bottom;verticalAlign=top;html=1;outlineConnect=0;" vertex="1" parent="1">
          <mxGeometry x="660" y="190" width="30" height="60" as="geometry" />
        </mxCell>
        <mxCell id="C70Fwr4B-RXGBDxF2DJP-3" value="Accountant" style="shape=umlActor;verticalLabelPosition=bottom;verticalAlign=top;html=1;outlineConnect=0;" vertex="1" parent="1">
          <mxGeometry x="670" y="410" width="30" height="60" as="geometry" />
        </mxCell>
        <mxCell id="C70Fwr4B-RXGBDxF2DJP-4" value="" style="rounded=0;whiteSpace=wrap;html=1;" vertex="1" parent="1">
          <mxGeometry x="90" width="540" height="540" as="geometry" />
        </mxCell>
        <mxCell id="C70Fwr4B-RXGBDxF2DJP-7" value="Log IN" style="ellipse;whiteSpace=wrap;html=1;" vertex="1" parent="1">
          <mxGeometry x="110" y="50" width="120" height="80" as="geometry" />
        </mxCell>
        <mxCell id="C70Fwr4B-RXGBDxF2DJP-1" value="Citizen" style="shape=umlActor;verticalLabelPosition=bottom;verticalAlign=top;html=1;outlineConnect=0;" vertex="1" parent="1">
          <mxGeometry x="40" y="160" width="30" height="60" as="geometry" />
        </mxCell>
        <mxCell id="C70Fwr4B-RXGBDxF2DJP-8" value="" style="endArrow=none;html=1;entryX=0.275;entryY=1;entryDx=0;entryDy=0;entryPerimeter=0;" edge="1" parent="1" source="C70Fwr4B-RXGBDxF2DJP-1" target="C70Fwr4B-RXGBDxF2DJP-7">
          <mxGeometry width="50" height="50" relative="1" as="geometry">
            <mxPoint x="400" y="310" as="sourcePoint" />
            <mxPoint x="450" y="260" as="targetPoint" />
            <Array as="points">
              <mxPoint x="120" y="150" />
            </Array>
          </mxGeometry>
        </mxCell>
        <mxCell id="C70Fwr4B-RXGBDxF2DJP-9" value="File a report" style="ellipse;whiteSpace=wrap;html=1;" vertex="1" parent="1">
          <mxGeometry x="150" y="170" width="80" height="50" as="geometry" />
        </mxCell>
        <mxCell id="C70Fwr4B-RXGBDxF2DJP-10" value="" style="endArrow=none;html=1;entryX=0;entryY=0.5;entryDx=0;entryDy=0;exitX=1;exitY=0.3333333333333333;exitDx=0;exitDy=0;exitPerimeter=0;" edge="1" parent="1" source="C70Fwr4B-RXGBDxF2DJP-1" target="C70Fwr4B-RXGBDxF2DJP-9">
          <mxGeometry width="50" height="50" relative="1" as="geometry">
            <mxPoint x="400" y="310" as="sourcePoint" />
            <mxPoint x="450" y="260" as="targetPoint" />
          </mxGeometry>
        </mxCell>
        <mxCell id="C70Fwr4B-RXGBDxF2DJP-11" value="" style="endArrow=none;html=1;exitX=1;exitY=0.5;exitDx=0;exitDy=0;entryX=0;entryY=0.3333333333333333;entryDx=0;entryDy=0;entryPerimeter=0;" edge="1" parent="1" source="C70Fwr4B-RXGBDxF2DJP-9" target="C70Fwr4B-RXGBDxF2DJP-2">
          <mxGeometry width="50" height="50" relative="1" as="geometry">
            <mxPoint x="400" y="310" as="sourcePoint" />
            <mxPoint x="450" y="260" as="targetPoint" />
          </mxGeometry>
        </mxCell>
        <mxCell id="C70Fwr4B-RXGBDxF2DJP-13" value="Assign clerk to report" style="ellipse;whiteSpace=wrap;html=1;" vertex="1" parent="1">
          <mxGeometry x="320" y="245" width="80" height="50" as="geometry" />
        </mxCell>
        <mxCell id="C70Fwr4B-RXGBDxF2DJP-14" value="Report Bill" style="ellipse;whiteSpace=wrap;html=1;" vertex="1" parent="1">
          <mxGeometry x="180" y="330" width="110" height="50" as="geometry" />
        </mxCell>
        <mxCell id="C70Fwr4B-RXGBDxF2DJP-15" value="Search Reports" style="ellipse;whiteSpace=wrap;html=1;" vertex="1" parent="1">
          <mxGeometry x="440" y="295" width="90" height="60" as="geometry" />
        </mxCell>
        <mxCell id="C70Fwr4B-RXGBDxF2DJP-16" value="&amp;lt;extend&amp;gt;" style="endArrow=none;dashed=1;html=1;entryX=0.238;entryY=1.02;entryDx=0;entryDy=0;entryPerimeter=0;" edge="1" parent="1" source="C70Fwr4B-RXGBDxF2DJP-14" target="C70Fwr4B-RXGBDxF2DJP-13">
          <mxGeometry width="50" height="50" relative="1" as="geometry">
            <mxPoint x="400" y="310" as="sourcePoint" />
            <mxPoint x="450" y="260" as="targetPoint" />
          </mxGeometry>
        </mxCell>
        <mxCell id="C70Fwr4B-RXGBDxF2DJP-17" value="" style="endArrow=none;html=1;exitX=1.013;exitY=0.34;exitDx=0;exitDy=0;exitPerimeter=0;" edge="1" parent="1" source="C70Fwr4B-RXGBDxF2DJP-13">
          <mxGeometry width="50" height="50" relative="1" as="geometry">
            <mxPoint x="400" y="310" as="sourcePoint" />
            <mxPoint x="660" y="210" as="targetPoint" />
          </mxGeometry>
        </mxCell>
        <mxCell id="C70Fwr4B-RXGBDxF2DJP-18" value="" style="endArrow=none;html=1;exitX=0.7;exitY=0.067;exitDx=0;exitDy=0;exitPerimeter=0;entryX=0;entryY=0.3333333333333333;entryDx=0;entryDy=0;entryPerimeter=0;" edge="1" parent="1" source="C70Fwr4B-RXGBDxF2DJP-15" target="C70Fwr4B-RXGBDxF2DJP-2">
          <mxGeometry width="50" height="50" relative="1" as="geometry">
            <mxPoint x="400" y="310" as="sourcePoint" />
            <mxPoint x="450" y="260" as="targetPoint" />
            <Array as="points">
              <mxPoint x="550" y="280" />
            </Array>
          </mxGeometry>
        </mxCell>
        <mxCell id="C70Fwr4B-RXGBDxF2DJP-19" value="" style="endArrow=none;html=1;entryX=0;entryY=0.3333333333333333;entryDx=0;entryDy=0;entryPerimeter=0;exitX=0.982;exitY=0.8;exitDx=0;exitDy=0;exitPerimeter=0;" edge="1" parent="1" source="C70Fwr4B-RXGBDxF2DJP-14" target="C70Fwr4B-RXGBDxF2DJP-3">
          <mxGeometry width="50" height="50" relative="1" as="geometry">
            <mxPoint x="400" y="280" as="sourcePoint" />
            <mxPoint x="450" y="230" as="targetPoint" />
          </mxGeometry>
        </mxCell>
        <mxCell id="C70Fwr4B-RXGBDxF2DJP-21" value="" style="endArrow=none;html=1;exitX=0;exitY=0.3333333333333333;exitDx=0;exitDy=0;exitPerimeter=0;" edge="1" parent="1" source="C70Fwr4B-RXGBDxF2DJP-2" target="C70Fwr4B-RXGBDxF2DJP-22">
          <mxGeometry width="50" height="50" relative="1" as="geometry">
            <mxPoint x="400" y="280" as="sourcePoint" />
            <mxPoint x="450" y="230" as="targetPoint" />
          </mxGeometry>
        </mxCell>
        <mxCell id="C70Fwr4B-RXGBDxF2DJP-22" value="work order" style="ellipse;whiteSpace=wrap;html=1;" vertex="1" parent="1">
          <mxGeometry x="350" y="110" width="90" height="60" as="geometry" />
        </mxCell>
        <mxCell id="C70Fwr4B-RXGBDxF2DJP-23" value="&amp;lt;include&amp;gt;" style="endArrow=none;dashed=1;html=1;entryX=0.222;entryY=0.167;entryDx=0;entryDy=0;entryPerimeter=0;exitX=0.65;exitY=0.975;exitDx=0;exitDy=0;exitPerimeter=0;" edge="1" parent="1" target="C70Fwr4B-RXGBDxF2DJP-22">
          <mxGeometry width="50" height="50" relative="1" as="geometry">
            <mxPoint x="312" y="59" as="sourcePoint" />
            <mxPoint x="450" y="210" as="targetPoint" />
            <Array as="points">
              <mxPoint x="350" y="100" />
              <mxPoint x="360" y="110" />
            </Array>
          </mxGeometry>
        </mxCell>
        <mxCell id="C70Fwr4B-RXGBDxF2DJP-25" value="Damage File" style="ellipse;whiteSpace=wrap;html=1;" vertex="1" parent="1">
          <mxGeometry x="270" y="30" width="70" height="30" as="geometry" />
        </mxCell>
        <mxCell id="C70Fwr4B-RXGBDxF2DJP-28" value="&amp;lt;extend&amp;gt;" style="endArrow=none;dashed=1;html=1;exitX=1;exitY=0.5;exitDx=0;exitDy=0;" edge="1" parent="1" source="C70Fwr4B-RXGBDxF2DJP-25">
          <mxGeometry width="50" height="50" relative="1" as="geometry">
            <mxPoint x="400" y="90" as="sourcePoint" />
            <mxPoint x="450" y="45" as="targetPoint" />
          </mxGeometry>
        </mxCell>
        <mxCell id="C70Fwr4B-RXGBDxF2DJP-30" value="Publish" style="ellipse;whiteSpace=wrap;html=1;" vertex="1" parent="1">
          <mxGeometry x="450" y="5" width="90" height="75" as="geometry" />
        </mxCell>
      </root>
    </mxGraphModel>
  </diagram>
</mxfile>
